<svg width="152" height="40" viewBox="0 0 152 40" fill="none" xmlns="http://www.w3.org/2000/svg">
<path d="M65.1805 17.6364H60.1734C60.1379 17.2221 60.0432 16.8462 59.8893 16.5089C59.7413 16.1715 59.5342 15.8815 59.2678 15.6388C59.0074 15.3903 58.6908 15.2009 58.3179 15.0707C57.945 14.9345 57.5219 14.8665 57.0484 14.8665C56.2198 14.8665 55.5184 15.0677 54.9443 15.4702C54.3762 15.8726 53.9441 16.4497 53.6482 17.2013C53.3582 17.953 53.2132 18.8556 53.2132 19.9091C53.2132 21.0218 53.3611 21.954 53.657 22.7056C53.9589 23.4513 54.3939 24.0136 54.9621 24.3924C55.5303 24.7653 56.2139 24.9517 57.0129 24.9517C57.4686 24.9517 57.877 24.8955 58.238 24.783C58.599 24.6647 58.9127 24.496 59.1791 24.277C59.4454 24.058 59.6614 23.7946 59.8271 23.4869C59.9988 23.1732 60.1142 22.821 60.1734 22.4304L65.1805 22.4659C65.1213 23.2353 64.9053 24.0195 64.5324 24.8185C64.1595 25.6116 63.6298 26.3455 62.9433 27.0202C62.2626 27.689 61.4192 28.2276 60.4131 28.636C59.4069 29.0444 58.238 29.2486 56.9063 29.2486C55.2373 29.2486 53.7399 28.8905 52.4142 28.1744C51.0943 27.4582 50.0497 26.4047 49.2803 25.0138C48.5168 23.623 48.135 21.9214 48.135 19.9091C48.135 17.8849 48.5257 16.1804 49.3069 14.7955C50.0882 13.4046 51.1417 12.354 52.4674 11.6438C53.7932 10.9277 55.2728 10.5696 56.9063 10.5696C58.0545 10.5696 59.111 10.7264 60.0757 11.0401C61.0405 11.3538 61.8868 11.8125 62.6148 12.4162C63.3428 13.014 63.9287 13.7508 64.3726 14.6268C64.8165 15.5027 65.0858 16.5059 65.1805 17.6364ZM74.0605 29.2486C72.5809 29.2486 71.3143 28.9556 70.2608 28.3697C69.2073 27.7778 68.3994 26.9551 67.8372 25.9016C67.2749 24.8422 66.9938 23.6141 66.9938 22.2173C66.9938 20.8205 67.2749 19.5954 67.8372 18.5419C68.3994 17.4825 69.2073 16.6598 70.2608 16.0739C71.3143 15.482 72.5809 15.1861 74.0605 15.1861C75.5402 15.1861 76.8068 15.482 77.8603 16.0739C78.9138 16.6598 79.7217 17.4825 80.2839 18.5419C80.8462 19.5954 81.1273 20.8205 81.1273 22.2173C81.1273 23.6141 80.8462 24.8422 80.2839 25.9016C79.7217 26.9551 78.9138 27.7778 77.8603 28.3697C76.8068 28.9556 75.5402 29.2486 74.0605 29.2486ZM74.0961 25.6264C74.5104 25.6264 74.8684 25.4873 75.1703 25.2092C75.4721 24.931 75.7059 24.5344 75.8716 24.0195C76.0373 23.5046 76.1202 22.892 76.1202 22.1818C76.1202 21.4657 76.0373 20.8531 75.8716 20.3441C75.7059 19.8292 75.4721 19.4326 75.1703 19.1545C74.8684 18.8763 74.5104 18.7372 74.0961 18.7372C73.6581 18.7372 73.2823 18.8763 72.9686 19.1545C72.6549 19.4326 72.4152 19.8292 72.2495 20.3441C72.0837 20.8531 72.0009 21.4657 72.0009 22.1818C72.0009 22.892 72.0837 23.5046 72.2495 24.0195C72.4152 24.5344 72.6549 24.931 72.9686 25.2092C73.2823 25.4873 73.6581 25.6264 74.0961 25.6264ZM83.1159 29V15.3636H88.0165V29H83.1159ZM85.5662 13.9432C84.9033 13.9432 84.3352 13.7242 83.8617 13.2862C83.3882 12.8482 83.1515 12.3215 83.1515 11.706C83.1515 11.0904 83.3882 10.5637 83.8617 10.1257C84.3352 9.68774 84.9033 9.46875 85.5662 9.46875C86.235 9.46875 86.8032 9.68774 87.2708 10.1257C87.7443 10.5637 87.981 11.0904 87.981 11.706C87.981 12.3215 87.7443 12.8482 87.2708 13.2862C86.8032 13.7242 86.235 13.9432 85.5662 13.9432ZM95.414 21.3295V29H90.5134V15.3636H95.1654V17.956H95.3074C95.6034 17.0919 96.1242 16.4142 96.8699 15.9229C97.6216 15.4317 98.4975 15.1861 99.4978 15.1861C100.463 15.1861 101.3 15.408 102.01 15.8519C102.726 16.2899 103.28 16.8936 103.67 17.663C104.067 18.4324 104.262 19.3113 104.256 20.2997V29H99.3557V21.3295C99.3617 20.6548 99.19 20.1251 98.8408 19.7404C98.4975 19.3557 98.0181 19.1634 97.4026 19.1634C97.0001 19.1634 96.648 19.2521 96.3461 19.4297C96.0502 19.6013 95.8224 19.8499 95.6626 20.1754C95.5028 20.495 95.4199 20.8797 95.414 21.3295ZM113.245 29.2486C111.765 29.2486 110.499 28.9556 109.445 28.3697C108.392 27.7778 107.584 26.9551 107.022 25.9016C106.459 24.8422 106.178 23.6141 106.178 22.2173C106.178 20.8205 106.459 19.5954 107.022 18.5419C107.584 17.4825 108.392 16.6598 109.445 16.0739C110.499 15.482 111.765 15.1861 113.245 15.1861C114.725 15.1861 115.991 15.482 117.045 16.0739C118.098 16.6598 118.906 17.4825 119.468 18.5419C120.031 19.5954 120.312 20.8205 120.312 22.2173C120.312 23.6141 120.031 24.8422 119.468 25.9016C118.906 26.9551 118.098 27.7778 117.045 28.3697C115.991 28.9556 114.725 29.2486 113.245 29.2486ZM113.281 25.6264C113.695 25.6264 114.053 25.4873 114.355 25.2092C114.657 24.931 114.89 24.5344 115.056 24.0195C115.222 23.5046 115.305 22.892 115.305 22.1818C115.305 21.4657 115.222 20.8531 115.056 20.3441C114.89 19.8292 114.657 19.4326 114.355 19.1545C114.053 18.8763 113.695 18.7372 113.281 18.7372C112.843 18.7372 112.467 18.8763 112.153 19.1545C111.839 19.4326 111.6 19.8292 111.434 20.3441C111.268 20.8531 111.185 21.4657 111.185 22.1818C111.185 22.892 111.268 23.5046 111.434 24.0195C111.6 24.5344 111.839 24.931 112.153 25.2092C112.467 25.4873 112.843 25.6264 113.281 25.6264ZM122.301 29V15.3636H126.953V17.956H127.095C127.379 17.1037 127.864 16.429 128.551 15.9318C129.237 15.4347 130.054 15.1861 131.001 15.1861C131.96 15.1861 132.785 15.4406 133.478 15.9496C134.17 16.4527 134.587 17.1214 134.729 17.956H134.872C135.102 17.1214 135.594 16.4527 136.345 15.9496C137.097 15.4406 137.979 15.1861 138.991 15.1861C140.299 15.1861 141.358 15.6063 142.169 16.4467C142.986 17.2872 143.394 18.4058 143.394 19.8026V29H138.494V21.0455C138.494 20.4477 138.343 19.9801 138.041 19.6428C137.739 19.2995 137.334 19.1278 136.825 19.1278C136.322 19.1278 135.922 19.2995 135.626 19.6428C135.336 19.9801 135.191 20.4477 135.191 21.0455V29H130.504V21.0455C130.504 20.4477 130.353 19.9801 130.051 19.6428C129.749 19.2995 129.344 19.1278 128.835 19.1278C128.497 19.1278 128.207 19.2048 127.965 19.3587C127.722 19.5125 127.533 19.7345 127.396 20.0245C127.266 20.3086 127.201 20.6489 127.201 21.0455V29H122.301ZM145.811 29V15.3636H150.712V29H145.811ZM148.262 13.9432C147.599 13.9432 147.03 13.7242 146.557 13.2862C146.084 12.8482 145.847 12.3215 145.847 11.706C145.847 11.0904 146.084 10.5637 146.557 10.1257C147.03 9.68774 147.599 9.46875 148.262 9.46875C148.93 9.46875 149.499 9.68774 149.966 10.1257C150.44 10.5637 150.676 11.0904 150.676 11.706C150.676 12.3215 150.44 12.8482 149.966 13.2862C149.499 13.7242 148.93 13.9432 148.262 13.9432Z" fill="white"/>
<rect width="40" height="40" rx="20" fill="#0B0B0F"/>
<path d="M19.297 31.9135L9.87014 27.0703V17.1428L19.2971 21.986V31.9135H19.297Z" fill="#A059D0"/>
<path d="M30.5048 16.6233V26.5508L21.0779 31.394V21.4665L30.5048 16.6233Z" fill="#D3A0FF"/>
<path d="M10.6494 14.973L20.0763 10.1299L29.5032 14.973L20.0763 19.8162L10.6494 14.973Z" fill="white"/>
</svg>
