<svg width="50" height="50" viewBox="0 0 50 50" fill="none" xmlns="http://www.w3.org/2000/svg">
<path d="M20.0221 12.5556C19.3621 12.5556 18.729 12.8178 18.2622 13.2845C17.7955 13.7513 17.5333 14.3844 17.5333 15.0445C17.5333 15.7046 17.7955 16.3376 18.2622 16.8044C18.729 17.2711 19.3621 17.5333 20.0221 17.5333H33.9251L30.7069 20.7515C30.2536 21.2209 30.0027 21.8496 30.0084 22.5022C30.0141 23.1547 30.2758 23.779 30.7373 24.2404C31.1987 24.7019 31.823 24.9637 32.4755 24.9693C33.1281 24.975 33.7568 24.7241 34.2262 24.2708L41.6929 16.8041C42.1595 16.3374 42.4216 15.7044 42.4216 15.0445C42.4216 14.3845 42.1595 13.7515 41.6929 13.2848L34.2262 5.81815C33.9966 5.58043 33.722 5.39082 33.4184 5.26038C33.1147 5.12994 32.7881 5.06128 32.4576 5.05841C32.1272 5.05554 31.7994 5.11851 31.4936 5.24366C31.1877 5.3688 30.9098 5.55361 30.6761 5.7873C30.4424 6.02099 30.2576 6.29888 30.1325 6.60475C30.0073 6.91063 29.9443 7.23836 29.9472 7.56883C29.9501 7.89931 30.0187 8.2259 30.1492 8.52955C30.2796 8.83321 30.4692 9.10784 30.7069 9.33744L33.9251 12.5556H20.0221Z" fill="url(#paint0_linear_1_183)"/>
<path d="M29.9777 37.4445C30.6378 37.4445 31.2709 37.1822 31.7376 36.7155C32.2044 36.2487 32.4666 35.6157 32.4666 34.9556C32.4666 34.2955 32.2044 33.6624 31.7376 33.1957C31.2709 32.7289 30.6378 32.4667 29.9777 32.4667H16.0748L19.2929 29.2485C19.5306 29.019 19.7202 28.7443 19.8507 28.4407C19.9811 28.137 20.0498 27.8104 20.0527 27.4799C20.0555 27.1495 19.9925 26.8217 19.8674 26.5159C19.7423 26.21 19.5575 25.9321 19.3238 25.6984C19.0901 25.4647 18.8122 25.2799 18.5063 25.1548C18.2004 25.0296 17.8727 24.9667 17.5422 24.9695C17.2118 24.9724 16.8852 25.0411 16.5815 25.1715C16.2779 25.3019 16.0032 25.4915 15.7736 25.7293L8.30696 33.1959C7.84037 33.6627 7.57825 34.2956 7.57825 34.9556C7.57825 35.6155 7.84037 36.2485 8.30696 36.7152L15.7736 44.1819C16.243 44.6352 16.8717 44.8861 17.5243 44.8804C18.1769 44.8748 18.8011 44.613 19.2626 44.1516C19.7241 43.6901 19.9858 43.0659 19.9915 42.4133C19.9972 41.7607 19.7463 41.132 19.2929 40.6626L16.0748 37.4445H29.9777Z" fill="url(#paint1_linear_1_183)"/>
<defs>
<linearGradient id="paint0_linear_1_183" x1="13.9299" y1="64.3768" x2="65.725" y2="29.0872" gradientUnits="userSpaceOnUse">
<stop stop-color="#982DEC"/>
<stop offset="0.572917" stop-color="#DC8DF8"/>
<stop offset="0.895833" stop-color="#A9C4F3"/>
</linearGradient>
<linearGradient id="paint1_linear_1_183" x1="13.9299" y1="64.3768" x2="65.725" y2="29.0872" gradientUnits="userSpaceOnUse">
<stop stop-color="#982DEC"/>
<stop offset="0.572917" stop-color="#DC8DF8"/>
<stop offset="0.895833" stop-color="#A9C4F3"/>
</linearGradient>
</defs>
</svg>
