<svg width="50" height="50" viewBox="0 0 50 50" fill="none" xmlns="http://www.w3.org/2000/svg">
<path d="M39.9333 15.6667V11.9333C39.9333 9.87441 38.2589 8.20001 36.2 8.20001H11.9333C8.84587 8.20001 6.33333 10.7125 6.33333 13.8V36.2C6.33333 40.3085 9.68213 41.8 11.9333 41.8H39.9333C41.9923 41.8 43.6667 40.1256 43.6667 38.0667V19.4C43.6667 17.3411 41.9923 15.6667 39.9333 15.6667ZM36.2 32.4667H32.4667V25H36.2V32.4667ZM11.9333 15.6667C11.4527 15.6452 10.9989 15.4391 10.6664 15.0914C10.3339 14.7437 10.1483 14.2811 10.1483 13.8C10.1483 13.3189 10.3339 12.8563 10.6664 12.5086C10.9989 12.1609 11.4527 11.9548 11.9333 11.9333H36.2V15.6667H11.9333Z" fill="url(#paint0_linear_1_218)"/>
<defs>
<linearGradient id="paint0_linear_1_218" x1="13.1389" y1="58.25" x2="59.6099" y2="18.0428" gradientUnits="userSpaceOnUse">
<stop stop-color="#982DEC"/>
<stop offset="0.572917" stop-color="#DC8DF8"/>
<stop offset="0.895833" stop-color="#A9C4F3"/>
</linearGradient>
</defs>
</svg>
